<?xml version="1.0" encoding="UTF-8"?>
<svg width="2283px" height="2255px" viewBox="0 0 2283 2255" version="1.1" xmlns="http://www.w3.org/2000/svg" xmlns:xlink="http://www.w3.org/1999/xlink">
    <title>Web Logo</title>
    <g id="Web-Logo" stroke="none" stroke-width="1" fill="none" fill-rule="evenodd">
        <path d="M715.595319,1209.79754 C728.804872,1220.00095 733.795393,1272.96132 743.51966,1270.49067 C793.695777,1257.74239 846.633005,1257.74239 864.382717,1271.02048 C905.700898,1301.92952 922.534982,1373.55563 921.590595,1378.06824 C909.142448,1437.54985 888.248075,1478.87063 877.442784,1503.86526 C855.347472,1554.97579 841.292053,1566.5751 819.693045,1600.2134 C790.999106,1644.90133 756.346491,1705.9001 743.51966,1730.00148 C689.325573,1831.83115 643.174684,1857.93594 635.675923,1865.12768 C603.407765,1896.0747 572.710228,1926.60795 544.173559,1955.13696 L540.381526,1958.92881 C534.082987,1965.2283 527.892453,1971.42532 521.816401,1977.50242 L517.008081,1982.31023 C473.155304,2026.14403 435.479029,2063.35761 406.489421,2087.187 C378.00768,2110.59893 348.561878,2122.32826 306.497037,2146.65984 C292.373647,2154.82923 236.300885,2190.91035 206.452002,2214.17008 C195.218684,2222.92364 188.220832,2228.81461 181.676763,2234.47871 L180.908738,2235.14419 C180.781007,2235.25498 180.653393,2235.36572 180.525868,2235.47644 L179.761558,2236.14057 L178.923147,2236.87017 C174.450862,2240.76459 169.940692,2244.72785 164.155899,2249.62193 C160.717087,2252.53125 146.323054,2252.99486 129.719231,2253.00033 L128.570742,2253.00001 C128.378779,2252.99984 128.186551,2252.99962 127.99407,2252.99934 L126.836266,2252.99711 C126.449394,2252.99618 126.06162,2252.99506 125.67305,2252.99379 L124.505058,2252.98952 L123.91947,2252.98708 L122.745509,2252.98166 C122.549566,2252.98071 122.353491,2252.97973 122.157296,2252.97873 L120.66513,2252.97076 L119.169669,2252.96228 C118.920223,2252.96084 118.670693,2252.95938 118.421107,2252.95793 L116.923128,2252.94921 C116.673424,2252.94776 116.423717,2252.94633 116.174035,2252.94491 L114.676447,2252.93661 L113.180737,2252.92896 L111.688196,2252.92226 C109.94925,2252.9151 108.219416,2252.91047 106.507933,2252.91047 C95.6730896,2252.91047 145.316753,2210.68518 206.452002,2134.85597 C245.979205,2085.82834 284.813556,2023.82223 320.001962,1972.01684 C353.202746,1923.13769 390.148852,1876.74429 397.205405,1865.12768 C401.904924,1857.39126 415.188831,1842.87677 429.379876,1826.90512 L430.383003,1825.77536 C432.05706,1823.88862 433.741172,1821.98345 435.422839,1820.06851 L436.709955,1818.6003 C441.426104,1813.21091 446.097811,1807.76193 450.448322,1802.44516 C473.62947,1774.11541 479.154141,1746.69992 474.896908,1737.79434 C467.137155,1721.56194 495.897166,1688.985 406.489421,1605.72886 C402.101967,1601.64328 394.504748,1605.16873 386.557292,1609.76382 L385.865396,1610.16593 C385.403636,1610.43559 384.940978,1610.7082 384.477978,1610.9825 L383.773903,1611.40064 L382.717756,1612.03053 C380.254315,1613.50186 377.801191,1614.97514 375.44231,1616.25836 C357.631479,1625.94743 340.246588,1636.71009 326.831898,1644.3368 C310.669765,1653.52553 302.47267,1665.83248 289.225949,1675.82635 C257.110241,1700.05576 234.337003,1712.03988 229.491626,1702.41389 C224.646248,1692.78789 223.139248,1667.7013 225.185821,1662.18766 C227.232393,1656.67401 242.583355,1646.17213 245.528878,1644.3368 C264.158924,1632.72861 473.322643,1380.26288 500.283602,1345.9208 C556.010479,1274.93754 591.632665,1196.2651 614.307313,1176.33403 C650.018457,1144.94385 711.20815,1206.40877 715.595319,1209.79754 Z M2139.90558,1040.91178 C2150.00704,1044.76604 2160.14998,1060.64319 2170.33441,1088.54323 C2186.3086,1086.99818 2202.21101,1094.39427 2218.04164,1110.7315 C2233.87228,1127.06872 2254.8584,1157.74162 2281,1202.75018 C2258.8929,1441.32576 2231.08334,1615.00126 2197.57134,1723.77667 C2164.05934,1832.55208 2114.68907,1909.39181 2049.46053,1954.29585 L1931.94135,2026.6185 L1867.96083,1986.47664 C1863.94,1950.02931 1860.38341,1926.9387 1857.29104,1917.20479 C1846.64803,1883.70362 1834.47961,1873.19475 1825.56984,1868.18431 C1812.77691,1860.99016 1792.89726,1855.21796 1765.9309,1850.86771 L1408.15886,1879.48892 C1349.21854,1887.64255 1310.03564,1894.44101 1290.61015,1899.88431 C1249.03228,1911.53502 1234.01593,1928.66363 1207.5307,1934.49083 C1139.96112,1949.35728 1090.29695,1922.0762 1074.38694,1815.73882 C1072.86515,1805.56762 1069.0686,1787.42985 1065.56446,1768.74843 L1065.24678,1767.04882 L1064.91662,1765.26892 L1064.75254,1764.37869 L1064.42665,1762.59856 C1062.80547,1753.7008 1061.314,1744.864 1060.22829,1736.88633 C1053.52545,1687.63448 1041.72485,1628.11026 1030.36957,1435.09623 C1029.22505,1415.64194 996.668676,1326.58762 1005.90596,1271.02048 C1008.98085,1252.52338 1027.0883,1237.45713 1060.22829,1225.82173 C1075.72072,1232.2004 1088.11202,1237.92071 1097.40222,1242.98264 C1106.69241,1248.04458 1121.62813,1257.21393 1142.20936,1270.49067 L1142.35945,1270.36097 C1150.65024,1277.68489 1155.03757,1283.70681 1155.52144,1288.42673 C1158.06174,1313.2058 1160.09625,1339.00867 1161.95562,1364.88355 L1162.32526,1370.0592 C1166.00024,1421.8197 1169.06284,1473.61442 1174.15829,1517.82901 C1183.54556,1599.28502 1197.55219,1659.65156 1204.60637,1708.49535 C1208.31667,1734.18583 1210.64574,1739.30277 1213.63085,1742.9244 L1213.81635,1743.14668 C1213.84741,1743.18346 1213.87855,1743.22013 1213.90976,1743.2567 L1214.19138,1743.58218 C1215.65759,1745.25632 1217.30165,1746.85806 1219.34469,1750.45796 C1231.44009,1771.77046 1246.75764,1772.33742 1262.44681,1770.73901 L1263.43817,1770.63535 L1263.93417,1770.58168 L1264.92672,1770.47134 L1265.94012,1770.35549 L1267.9681,1770.11836 C1268.41886,1770.06535 1268.86965,1770.01235 1269.32041,1769.95979 L1270.67249,1769.80388 C1274.72803,1769.34279 1278.77523,1768.9531 1282.76527,1768.9531 C1303.16554,1768.9531 1337.46323,1765.65585 1385.65834,1759.06136 C1386.01096,1744.76918 1385.18106,1737.74307 1383.16862,1737.98303 C1382.88947,1738.01632 1364.60944,1721.43007 1363.72097,1708.49535 C1361.64737,1678.30684 1365.20682,1519.98526 1363.72097,1308.82529 C1363.69486,1305.11395 1362.19438,1305.18549 1360.4434,1305.60143 L1360.20319,1305.65996 C1360.16293,1305.66996 1360.12258,1305.68006 1360.08213,1305.69022 L1359.7884,1305.76409 L1359.49287,1305.83654 C1357.96339,1306.20142 1356.41013,1306.37399 1355.58223,1304.24954 C1354.72282,1302.04422 1354.72282,1294.48618 1355.58223,1281.57544 C1338.00087,1268.1138 1324.76348,1257.76382 1315.87007,1250.5255 C1297.2469,1235.36817 1278.44009,1224.1781 1268.30257,1214.06975 C1255.05326,1200.85855 1249.99581,1187.69916 1253.13021,1174.59155 C1277.43846,1157.35584 1295.10425,1145.52459 1306.12852,1139.09716 C1316.52523,1133.03559 1331.02394,1137.31625 1340.16454,1133.02787 C1351.8597,1127.54102 1350.36957,1120.52541 1356.39718,1117.26472 C1370.65895,1109.54968 1393.43205,1113.14984 1434.23355,1110.7315 C1472.66282,1108.45376 1535.67413,1093.56933 1569.17518,1088.54323 C1703.00418,1068.46514 1845.35267,1060.40982 1996.22064,1064.37726 C2000.89937,1045.96299 2013.21976,1038.14117 2033.18181,1040.91178 C2047.93077,1042.95885 2097.03686,1024.55503 2139.90558,1040.91178 Z M1915.26159,1169.53437 C1905.1889,1170.21097 1887.68233,1173.52376 1869.35074,1176.59807 L1867.68215,1176.87682 C1865.73323,1177.20107 1863.77728,1177.52166 1861.82219,1177.83516 L1860.1468,1178.10205 C1855.68061,1178.80871 1851.23067,1179.4732 1846.89114,1180.05456 C1822.68854,1183.29694 1802.04538,1183.67369 1795.34832,1187.37322 C1788.97199,1190.89559 1788.97628,1221.3998 1788.46608,1224.51677 C1784.59394,1248.17271 1781.21758,1258.03346 1779.96614,1271.02048 C1776.8745,1303.1045 1777.55877,1338.33378 1776.8226,1357.87971 C1772.2872,1478.29835 1776.87969,1575.98442 1767.05724,1632.8001 C1755.21611,1701.29233 1748.28905,1738.72539 1746.27606,1745.0993 L1746.25797,1745.15315 L1746.84477,1745.19901 C1785.48237,1748.21503 1810.09387,1751.96331 1820.67927,1756.44385 L1820.99893,1756.58123 C1841.76428,1765.64511 1834.56295,1779.80926 1849.32215,1783.49502 C1875.28581,1789.97883 1891.59102,1788.04989 1898.23777,1777.70819 C1936.52113,1714.12272 1958.23579,1668.67211 1963.38173,1641.35636 C1971.3372,1599.12699 2000.09675,1274.41345 2003.349,1230.0281 C2005.10791,1206.02336 2008.68249,1188.01753 2003.349,1172.80872 C1999.79592,1162.67685 1943.51956,1167.63623 1915.26159,1169.53437 Z M1745.65761,1745.10691 C1745.65761,1746.33084 1745.84022,1746.40059 1746.20544,1745.31616 L1746.25797,1745.15315 L1745.65761,1745.10691 Z M1577.3504,1613.01948 C1573.52351,1613.97704 1571.94085,1616.917 1570.43589,1619.80346 L1570.1353,1620.37944 C1569.0322,1622.48431 1567.89322,1624.48742 1565.86394,1625.58586 C1561.45495,1627.97243 1551.97494,1624.78921 1542.24684,1628.13004 C1533.40804,1631.16546 1513.41578,1636.65546 1482.27006,1644.60002 C1479.77993,1664.66763 1476.57863,1681.59169 1472.66618,1695.3722 C1468.82896,1708.8877 1462.68513,1725.09436 1454.23469,1743.99217 L1453.73494,1745.10691 L1616.44506,1745.10691 C1616.98278,1736.79267 1617.72913,1731.30044 1618.68411,1728.6302 C1620.49508,1723.56653 1621.52751,1715.36177 1620.84183,1703.98826 C1620.0516,1690.88065 1613.75404,1672.13254 1610.5309,1648.62663 C1609.34037,1639.94426 1608.65735,1628.07522 1608.48183,1613.01948 C1609.02331,1607.69088 1598.64617,1607.69088 1577.3504,1613.01948 Z M652.637344,1400.28541 C651.158899,1401.28864 653.897985,1406.85301 650.131794,1412.022 C644.586054,1419.63336 631.748502,1428.02747 626.288445,1433.15099 C616.624127,1442.21964 601.857198,1452.42166 587.109502,1462.96509 L585.099053,1464.40487 C575.722002,1471.13303 566.447019,1477.98487 558.594007,1484.75628 C531.767655,1507.88785 493.212236,1530.72087 487.554399,1544.11253 C484.829675,1550.56175 535.595128,1559.33737 537.633673,1560.45186 C541.160686,1562.38011 548.583339,1568.24582 556.512642,1574.21072 L557.596732,1575.02437 L558.140536,1575.43098 L559.230467,1576.24241 L560.086795,1576.87626 C569.079877,1583.51454 578.073805,1589.55475 582.26346,1589.55475 C585.47235,1589.55475 590.980395,1584.57101 596.182174,1579.06404 L596.844366,1578.35853 C597.041246,1578.14747 597.237522,1577.93592 597.433049,1577.72414 L598.01724,1577.08834 C603.15522,1571.47012 607.66659,1565.85827 608.875276,1564.83425 C613.158736,1561.20523 617.876433,1557.75996 622.654094,1554.31057 L624.164386,1553.22093 C624.66819,1552.85753 625.172222,1552.49386 625.676045,1552.12971 L627.186453,1551.03557 C636.994357,1543.91144 646.556934,1536.51993 652.637344,1527.23619 C657.980638,1519.0779 665.18787,1496.10656 676.682566,1468.91579 C677.545349,1466.87487 678.421696,1464.8208 679.303915,1462.7608 L679.96656,1461.21479 C681.014199,1458.77232 682.067377,1456.32404 683.113317,1453.88191 L684.052365,1451.68598 C692.584044,1431.69961 700.371454,1412.36801 700.371454,1400.28541 C700.371454,1398.23568 659.630716,1395.53992 652.637344,1400.28541 Z M650.478917,2.03263621 C661.679593,3.91213092 810.910613,40.0518342 822.410285,150.566139 C825.097818,176.393902 827.109075,208.551439 826.460308,250.404748 C830.097312,251.311259 833.386947,252.281656 836.257344,253.313333 C851.114631,258.653336 839.91239,270.080224 849.75079,269.798179 C875.692473,269.054488 895.569766,269.175867 909.382669,270.162317 C927.952624,271.488492 965.087502,280.393948 984.515484,295.842615 C1006.86234,313.612299 1010.35127,338.213831 1011.11993,339.575076 C1026.31395,366.482532 1033.4593,383.003655 1026.01013,395.126155 C1015.80455,411.734351 976.13474,414.256654 941.960261,427.287645 C910.604532,439.243824 886.342849,455.153222 880.57579,457.677898 C844.085879,473.652281 838.989871,489.122951 818.906793,495.785612 C812.754683,497.826606 806.716474,499.778911 800.79084,501.647268 C796.617277,520.127809 789.126696,542.11486 781.476084,564.743901 L780.538689,567.517818 C780.2261,568.443396 779.91346,569.36985 779.600982,570.296983 L778.664252,573.080228 C778.352315,574.008527 778.040755,574.93731 777.729787,575.866384 L776.593901,579.270071 C768.477956,603.667385 760.950336,628.101061 757.889843,649.051296 C756.990972,655.20441 753.944197,670.159656 750.854552,685.736983 L750.476157,687.646963 C749.970528,690.202323 749.466051,692.765402 748.971955,695.300346 C754.557645,714.068849 758.89507,734.328545 764.862451,727.924178 C777.671451,714.177187 790.160863,697.038456 802.436094,679.652516 L804.322915,676.97623 C804.951302,676.083767 805.579139,675.191078 806.206442,674.298587 L808.08676,671.622133 C808.713008,670.730462 809.338734,669.839414 809.963955,668.949411 C827.574283,643.881075 844.112937,619.981713 851.544587,610.954284 C861.92254,598.347898 876.096682,585.439723 884.239839,573.263669 C900.163403,549.45396 907.029624,529.056791 915.439911,523.483868 C943.921935,504.610775 1012.22889,562.479267 1012.22889,583.973825 C1012.22889,595.47038 997.057999,627.841169 978.219767,650.024164 C967.535377,662.605588 937.738896,680.054881 888.830324,702.372043 C881.465383,703.045135 902.107824,707.523123 950.757646,715.806007 C980.26114,720.82913 1010.07084,721.395185 1052.58175,727.924178 C1064.9287,729.820472 1117.24253,745.99795 1142.20936,794.340211 C1146.45786,802.566416 1169.16671,882.983826 1114.73842,875.454496 C1101.30492,873.596174 1078.55034,865.942766 1046.47467,852.494271 C1014.83368,839.228028 945.877848,805.315682 839.607168,750.757232 C813.712211,767.721162 791.844127,789.201926 774.002917,815.199526 C759.22548,836.732699 741.418423,869.804823 720.581744,914.415898 C719.401798,935.325784 719.813725,950.782112 722.956416,955.298008 C732.526862,969.050279 854.63656,992.385637 867.018956,995.05036 C914.657097,1005.30221 996.947351,1018.26236 1059.47779,1051.87427 C1068.10802,1056.51327 1107.2374,1073.33785 1137.87802,1107.17587 C1179.82764,1153.50301 1210.86031,1219.83358 1171.66356,1221.59928 C1134.83621,1223.25825 1077.68747,1221.80766 1004.25797,1199.67897 C934.33583,1178.60726 841.477704,1143.99738 776.647276,1114.79479 C744.766155,1100.43407 730.874019,1086.47495 707.940603,1077.84477 C685.493262,1069.39751 668.164231,1072.54789 659.138946,1073.86314 L658.501024,1073.95484 C656.942605,1074.17514 655.657899,1074.32494 654.665708,1074.32494 C638.376655,1074.32494 616.030637,1114.45231 570.851194,1154.79226 C513.123507,1206.33631 431.319774,1261.62103 419.250858,1270.49067 C401.064404,1283.85618 390.40753,1302.95326 376.308954,1312.91379 C357.610931,1326.1238 342.319906,1326.90492 328.090444,1334.9421 C293.70456,1354.36416 268.947852,1371.85757 242.143188,1388.54882 C230.848431,1395.58206 194.818728,1422.31674 182.146027,1430.0035 C142.671302,1453.94731 116.163586,1457.08778 80.1017907,1470.91838 C75.8091892,1472.5647 69.3789658,1478.1392 62.4973081,1483.99429 L61.4872093,1484.85271 C61.3183877,1484.99597 61.1493464,1485.13929 60.98011,1485.28263 L59.9625453,1486.14229 C52.146263,1492.72732 44.0205718,1499.1056 37.9668469,1500.12568 C37.1107066,1500.27771 19.2386782,1501.83168 8.67681517,1497.4298 C1.51599954,1494.44537 -1.50957916,1487.27832 3.41871525,1480.64675 C14.2448316,1466.07901 66.8876602,1431.76412 108.784848,1382.6988 C148.905873,1335.71354 238.644443,1263.86903 361.955745,1114.79479 C388.181642,1083.08962 443.318254,1024.22067 495.25472,952.60047 C493.391648,948.580547 491.010634,944.166459 488.111763,939.357949 C481.75119,928.807331 452.393319,937.042895 439.627978,927.435277 C430.122965,920.28149 416.621896,907.975736 399.124771,890.518014 L397.657427,889.051278 C391.258853,882.643743 384.339188,875.564385 376.898432,867.813205 C331.584511,903.147672 288.005555,938.334096 246.161564,973.372478 C204.317572,1008.41086 170.150458,1036.88721 143.66022,1058.80151 C118.452886,1057.25094 102.000479,1057.25094 94.3029996,1058.80151 C81.9953319,1061.28076 78.9855843,1072.45679 73.2873479,1072.83978 C57.1192327,1073.92647 42.7927138,1073.79281 44.1488024,1066.06076 C45.1252627,1060.49326 50.6241622,1063.19708 55.0632892,1056.13126 C66.219593,1038.37362 83.5490416,1007.44052 100.122195,985.034135 C119.700747,958.564547 146.089903,932.536674 164.068032,907.771567 C184.132232,880.132871 195.141585,854.496952 203.608636,840.375844 C217.282174,817.571504 236.738923,782.187983 260.090671,735.510878 C278.516689,698.679665 297.347573,650.667421 331.62249,624.900167 C334.880869,622.450578 337.939138,611.867539 335.845574,600.666035 C335.277616,597.627206 334.113189,597.391804 332.874731,597.314534 L332.598511,597.29889 C331.305783,597.228 329.975057,597.11644 329.188997,594.013973 C326.95943,585.214195 327.518679,564.462393 331.62249,559.763426 C334.27534,556.725846 352.237881,555.660823 362.931936,559.763426 C372.062857,563.266357 374.053689,571.889706 376.898432,571.41903 C379.342846,571.014591 385.909334,571.275326 389.048799,571.41903 C398.731964,571.862261 467.458625,591.30008 488.111763,655.081724 C488.888609,657.480802 487.205334,686.094979 479.576987,708.627197 C475.930046,719.399344 460.02888,726.653188 456.68577,735.510878 C452.588686,746.366254 461.783742,758.432545 466.90467,767.578317 C469.913381,772.951754 544.990166,795.990367 547.959735,808.824907 C548.641884,811.773167 554.134445,821.565895 558.884116,831.593583 L559.320275,832.51969 C559.754001,833.44608 560.179941,834.372739 560.593727,835.294469 C567.680997,814.844129 572.635501,793.101138 573.48961,771.092535 C573.680648,766.169881 573.755889,759.577346 573.76402,751.405852 L573.76461,749.138184 C573.755232,727.516905 573.336216,695.631153 573.320928,654.99986 L573.320589,651.686296 C573.322901,638.35562 573.369992,624.109352 573.48961,608.999309 C573.604544,594.480912 573.939372,574.105696 574.395991,550.016016 C572.984542,550.277837 571.615529,550.546266 570.285807,550.819443 C564.444394,552.019498 552.39837,527.063794 546.295173,527.063794 C493.578022,527.063794 491.003137,524.891275 489.820513,522.23131 L489.730324,522.023083 L489.640646,521.81306 C489.35206,521.145331 488.994051,520.453252 487.834193,519.76214 C413.826774,475.664186 364.538523,415.344966 346.608085,395.126155 C323.442411,369.003963 327.134952,340.322389 357.685708,309.081435 C358.785729,299.94968 366.007795,294.328677 379.351908,292.218425 C393.415868,289.994335 414.747896,289.167097 436.65271,288.716534 L439.835706,288.65366 C440.89754,288.633507 441.959957,288.61412 443.022197,288.595384 L445.696649,288.549504 C465.299987,288.222141 484.626104,288.083664 498.896436,287.405951 C513.163248,286.728405 518.55121,284.916419 522.912513,283.207913 L523.264037,283.069637 C523.380566,283.023637 523.496499,282.977737 523.611992,282.931961 L523.957308,282.795032 C524.358998,282.635774 524.757199,282.47834 525.158556,282.323778 L525.564333,282.169034 C527.19373,281.554265 528.910694,280.991879 531.150527,280.550502 C546.716818,277.48304 563.312786,272.465134 579.369606,267.173321 L579.36991,267.163742 C579.447414,256.965365 579.492037,247.313295 579.497334,238.348274 L579.497587,235.272656 C579.487036,211.229334 579.177681,192.430515 578.43828,181.742261 C577.002405,160.986291 576.634036,129.888754 573.48961,103.569463 C572.664757,96.6653242 557.158856,53.9785708 564.190557,43.7233962 C566.807538,39.9067382 599.981106,-6.44099178 650.478917,2.03263621 Z M1565.4638,1417.09205 C1562.37993,1417.34924 1566.13834,1419.33003 1555.83516,1421.23527 C1554.28524,1421.52188 1552.16918,1421.54139 1549.65075,1421.53914 L1548.95405,1421.53818 L1548.56074,1421.53758 L1547.34686,1421.53772 C1540.05282,1421.55358 1530.24492,1421.92287 1521.0149,1427.27715 C1512.3173,1432.32257 1507.66904,1451.51092 1507.07011,1484.84222 L1507.0532,1485.85659 L1623.87391,1485.85659 C1626.61582,1456.09528 1625.43939,1437.70031 1620.34464,1430.67168 C1606.20373,1411.16314 1573.07024,1416.45769 1565.4638,1417.09205 Z M1575.82179,1217.51716 C1571.86328,1217.75491 1562.83404,1220.49436 1553.12001,1222.67818 L1552.03808,1222.91839 L1550.89027,1223.16619 C1544.9502,1224.42872 1538.8811,1225.40115 1533.66178,1225.40115 C1529.48305,1225.40115 1522.88943,1231.08388 1513.88092,1242.44934 C1512.78972,1273.79463 1514.87781,1296.64957 1520.1452,1311.01417 C1522.93926,1318.63377 1536.99869,1318.63377 1548.14117,1311.01417 C1552.774,1307.84608 1560.28692,1308.38334 1573.68782,1304.56887 C1579.84208,1302.81709 1602.4282,1305.87916 1614.61572,1293.78819 C1619.31084,1289.13027 1606.6586,1265.39316 1606.6586,1232.90122 C1606.6586,1231.6152 1592.89954,1216.49146 1575.82179,1217.51716 Z M1479.72484,693 L1547.33089,757.685786 C1549.05328,790.114338 1547.4504,813.899839 1542.52225,829.042288 C1535.26449,851.342818 1491.40169,904.216353 1468.78436,930.998255 C1434.14768,972.012668 1379.88562,1033.70702 1305.9982,1116.08131 L1303.75318,1118.58383 L1224,1125 C1254.00459,1071.11278 1277.7577,1027.6576 1295.25934,994.634472 C1312.76097,961.611341 1333.20178,921.678801 1356.58175,874.836852 C1365.03126,850.506749 1370.77671,827.353767 1373.81809,805.377906 C1376.82906,783.621804 1380.02433,746.690381 1383.40389,694.583637 L1383.50636,693 L1479.72484,693 Z M1993.97267,393.267116 C2018.21656,404.171384 2071.25727,430.626646 2071.25727,430.626646 C2085.08576,473.309324 2092,494.650663 2092,494.650663 C2068.7957,543.935851 2057.19355,568.578445 2057.19355,568.578445 C2006.61943,575.429879 1981.33237,578.855596 1981.33237,578.855596 C1868.72993,581.067008 1812.42871,582.172714 1812.42871,582.172714 C1729.9623,596.059769 1688.72909,603.003297 1688.72909,603.003297 C1641.90671,606.625918 1618.49552,608.437228 1618.49552,608.437228 C1575.00246,622.668188 1545.14165,631.530597 1528.91311,635.024457 C1503.39954,640.517298 1473.17831,640.517298 1467.7391,642.066908 C1429.94977,652.83295 1421.19179,659.974223 1421.19179,659.974223 C1383.7739,661.341926 1358.06036,661.341926 1344.05115,659.974223 C1327.49721,658.358082 1295.69223,654.39177 1271.42056,635.024457 C1257.65667,624.04171 1238.01615,598.970565 1212.49903,559.811019 L1150,474.402555 C1177.45242,460.649542 1196.32995,454.600511 1206.63258,456.255462 C1248.0461,460.338486 1308.15006,456.255462 1308.15006,456.255462 C1367.8987,439.707121 1397.77302,431.432951 1397.77302,431.432951 C1536.4051,437.745628 1605.72114,440.901967 1605.72114,440.901967 C1711.00343,434.589289 1763.64457,431.432951 1763.64457,431.432951 C1789.40592,417.541978 1802.2866,410.596491 1802.2866,410.596491 C1837.5986,412.749782 1855.25461,413.826428 1855.25461,413.826428 C1888.90509,396.489059 1905.73033,387.820374 1905.73033,387.820374 C1948.39597,384.182024 1977.81008,385.997605 1993.97267,393.267116 Z" id="Combined-Shape" stroke="#979797" fill="#000000"></path>
    </g>
</svg>